<svg width="20" height="20" viewBox="0 0 20 20" fill="none" xmlns="http://www.w3.org/2000/svg">
<path d="M20 3.15789V5.26316H16.8421V8.42105H14.7368V5.26316H11.5789V3.15789H14.7368V0H16.8421V3.15789H20ZM16.8421 17.8947H2.10526V3.15789H8.42105V1.05263H2.10526C0.947368 1.05263 0 2 0 3.15789V17.8947C0 19.0526 0.947368 20 2.10526 20H16.8421C18 20 18.9474 19.0526 18.9474 17.8947V11.5789H16.8421V17.8947ZM12.6316 11.5789V15.7895H14.7368V11.5789H12.6316ZM8.42105 15.7895H10.5263V7.36842H8.42105V15.7895ZM6.31579 15.7895V9.47368H4.21053V15.7895H6.31579Z" fill="white"/>
</svg>
