<svg width="60" height="65" viewBox="0 0 60 65" fill="none" xmlns="http://www.w3.org/2000/svg">
<path d="M40.2585 14.706C40.1295 25.3638 57.3785 37.8591 58.5125 45.0346C61.5074 39.208 54.5482 18.5731 51.0968 12.8491C47.6454 7.12521 40.3876 4.04822 40.2585 14.706Z" fill="url(#paint0_linear_1001_5347)"/>
<path d="M43.0276 40.3893C45.9174 54.4441 47.6309 49.7697 44.7389 62.6715L57.2885 47.812C58.3677 42.2853 56.5195 40.5017 51.0137 38.5324C51.0137 38.5324 40.1377 26.3345 43.0276 40.3893Z" fill="url(#paint1_linear_1001_5347)"/>
<path d="M40.1397 29.9495C33.5031 40.0217 20.3922 54.0064 39.1186 62.2645C17.6132 64.1981 3.22163 54.127 1.41582 42.4654C-0.389986 30.8038 7.54591 29.6527 9.03595 35.7543C10.526 41.8558 10.5884 44.2943 17.1398 47.6146C17.1398 47.6146 28.6468 28.8609 31.8876 25.5407C35.1284 22.2204 46.7762 19.8774 40.1397 29.9495Z" fill="url(#paint2_linear_1001_5347)"/>
<path d="M36.8899 8.37897C32.8969 17.6673 15.7838 43.6592 15.7838 43.6592L6.6568 26.9443C2.12132 16.3398 7.22723 6.5159 11.7907 6.5159C16.3542 6.5159 18.7657 13.2896 18.0655 26.9443C18.0655 26.9443 20.9177 13.3338 25.4812 5.28422C30.0447 -2.76537 40.883 -0.909324 36.8899 8.37897Z" fill="url(#paint3_linear_1001_5347)"/>
<path d="M31.2415 3.0984C26.7264 9.62563 25.5272 27.8176 23.1445 31.1292C23.1445 31.1292 35.6013 18.9266 37.4699 10.3989C39.3384 1.87115 35.7565 -3.42883 31.2415 3.0984Z" fill="white"/>
<path d="M16.2994 43.5076C11.725 30.286 14.588 19.5832 14.0176 14.2001C13.4472 8.81702 8.06803 1.32922 5.26538 16.9848C2.46273 32.6403 16.2994 43.5076 16.2994 43.5076Z" fill="white"/>
<path d="M42.5391 7.71067C49.8236 16.7685 53.2471 22.412 59.0817 41.0212C57.5194 16.4599 49.1787 4.52026 42.5391 7.71067Z" fill="white"/>
<path d="M42.5391 34.8428C48.9191 45.0246 52.8943 49.6807 45.0093 63.3146C45.5388 52.6172 42.5433 42.7969 42.5391 34.8428Z" fill="white"/>
<path d="M31.2617 32.4654C24.4164 40.5118 20.8328 52.4127 30.6914 62.1751C30.6914 62.1751 7.90028 60.3293 5.0481 47.3313C2.19592 34.3333 4.45177 28.1583 7.87403 33.1099C11.2963 38.0615 7.44333 38.7144 17.0008 47.3313C17.0008 47.3313 17.5711 45.4822 19.853 38.666C22.1349 31.8497 32.71 23.2317 35.2548 22.5658C37.7996 21.8998 38.1071 24.419 31.2617 32.4654Z" fill="white"/>
<defs>
<linearGradient id="paint0_linear_1001_5347" x1="49.7504" y1="7.62598" x2="52.0038" y2="33.5927" gradientUnits="userSpaceOnUse">
<stop stop-color="#089DEB"/>
<stop offset="1" stop-color="#1D7EDD"/>
</linearGradient>
<linearGradient id="paint1_linear_1001_5347" x1="50.0608" y1="33.6221" x2="50.0608" y2="62.6715" gradientUnits="userSpaceOnUse">
<stop stop-color="#07C1FB"/>
<stop offset="0.569607" stop-color="#0E60C7"/>
</linearGradient>
<linearGradient id="paint2_linear_1001_5347" x1="35.1238" y1="26.8131" x2="29.1105" y2="58.8334" gradientUnits="userSpaceOnUse">
<stop stop-color="#07A4EE"/>
<stop offset="1" stop-color="#142AA2"/>
</linearGradient>
<linearGradient id="paint3_linear_1001_5347" x1="21.3238" y1="0.198242" x2="21.3238" y2="43.6592" gradientUnits="userSpaceOnUse">
<stop stop-color="#099BEB"/>
<stop offset="0.801528" stop-color="#142AA2"/>
</linearGradient>
</defs>
</svg>
