<svg width="18" height="18" viewBox="0 0 18 18" fill="none" xmlns="http://www.w3.org/2000/svg">
<path d="M9 12.375C10.864 12.375 12.375 10.864 12.375 9C12.375 7.13604 10.864 5.625 9 5.625C7.13604 5.625 5.625 7.13604 5.625 9C5.625 10.864 7.13604 12.375 9 12.375Z" stroke="#7D7D7D" stroke-width="1.5" stroke-linecap="round" stroke-linejoin="round"/>
<path d="M12.9162 4.57715C13.0943 4.74121 13.2631 4.90996 13.4225 5.0834L15.342 5.35762C15.6548 5.90079 15.8958 6.48219 16.0592 7.08731L14.892 8.64121C14.892 8.64121 14.9131 9.11934 14.892 9.3584L16.0592 10.9123C15.8966 11.5177 15.6555 12.0992 15.342 12.642L13.4225 12.9162C13.4225 12.9162 13.092 13.2607 12.9162 13.4225L12.642 15.342C12.0988 15.6548 11.5174 15.8958 10.9123 16.0592L9.3584 14.892C9.1198 14.9131 8.87981 14.9131 8.64121 14.892L7.08731 16.0592C6.48193 15.8966 5.90043 15.6555 5.35762 15.342L5.0834 13.4225C4.90996 13.2584 4.74121 13.0896 4.57715 12.9162L2.65762 12.642C2.34485 12.0988 2.10379 11.5174 1.94043 10.9123L3.10762 9.3584C3.10762 9.3584 3.08652 8.88027 3.10762 8.64121L1.94043 7.08731C2.10303 6.48193 2.34414 5.90043 2.65762 5.35762L4.57715 5.0834C4.74121 4.90996 4.90996 4.74121 5.0834 4.57715L5.35762 2.65762C5.90079 2.34485 6.48219 2.10379 7.08731 1.94043L8.64121 3.10762C8.87981 3.08652 9.1198 3.08652 9.3584 3.10762L10.9123 1.94043C11.5177 2.10303 12.0992 2.34414 12.642 2.65762L12.9162 4.57715Z" stroke="#7D7D7D" stroke-width="1.5" stroke-linecap="round" stroke-linejoin="round"/>
</svg>
