<svg width="18" height="18" viewBox="0 0 18 18" fill="none" xmlns="http://www.w3.org/2000/svg">
<path d="M15.8555 8.99975H13.6055C13.3071 8.99975 13.021 9.11827 12.81 9.32925C12.599 9.54023 12.4805 9.82638 12.4805 10.1247V12.9372C12.4805 13.2356 12.599 13.5218 12.81 13.7327C13.021 13.9437 13.3071 14.0622 13.6055 14.0622H14.7305C15.0288 14.0622 15.315 13.9437 15.526 13.7327C15.7369 13.5218 15.8555 13.2356 15.8555 12.9372V8.99975ZM15.8555 8.99975C15.8555 8.10857 15.6791 7.22621 15.3363 6.40357C14.9936 5.58094 14.4914 4.83431 13.8586 4.20678C13.2258 3.57924 12.4751 3.08322 11.6496 2.74732C10.8242 2.41143 9.94036 2.24232 9.04922 2.24975C8.15866 2.24325 7.27563 2.41305 6.45099 2.74936C5.62635 3.08567 4.87642 3.58185 4.2444 4.20929C3.61238 4.83673 3.11077 5.58304 2.76848 6.40521C2.42619 7.22739 2.24998 8.10917 2.25 8.99975V12.9372C2.25 13.2356 2.36853 13.5218 2.5795 13.7327C2.79048 13.9437 3.07663 14.0622 3.375 14.0622H4.5C4.79837 14.0622 5.08452 13.9437 5.29549 13.7327C5.50647 13.5218 5.625 13.2356 5.625 12.9372V10.1247C5.625 9.82638 5.50647 9.54023 5.29549 9.32925C5.08452 9.11827 4.79837 8.99975 4.5 8.99975H2.25" stroke="#7D7D7D" stroke-width="1.5" stroke-linecap="round" stroke-linejoin="round"/>
<path d="M15.8555 12.9375V14.625C15.8555 15.2217 15.6184 15.794 15.1965 16.216C14.7745 16.6379 14.2022 16.875 13.6055 16.875H9.5625" stroke="#7D7D7D" stroke-width="1.5" stroke-linecap="round" stroke-linejoin="round"/>
</svg>
