<svg width="22" height="22" viewBox="0 0 22 22" fill="none" xmlns="http://www.w3.org/2000/svg">
<path d="M3 8.37007V13.6208C3 15.5501 3 15.5501 4.77778 16.7786L9.66667 19.6724C10.4044 20.1092 11.6044 20.1092 12.3333 19.6724L17.2222 16.7786C19 15.5501 19 15.5501 19 13.6299V8.37007C19 6.44995 19 6.44995 17.2222 5.22144L12.3333 2.3276C11.6044 1.8908 10.4044 1.8908 9.66667 2.3276L4.77778 5.22144C3 6.44995 3 6.44995 3 8.37007Z" stroke="#2E2C34" stroke-width="1.5" stroke-linecap="round" stroke-linejoin="round"/>
<path d="M11 13.75C11.7293 13.75 12.4288 13.4603 12.9445 12.9445C13.4603 12.4288 13.75 11.7293 13.75 11C13.75 10.2707 13.4603 9.57118 12.9445 9.05546C12.4288 8.53973 11.7293 8.25 11 8.25C10.2707 8.25 9.57118 8.53973 9.05546 9.05546C8.53973 9.57118 8.25 10.2707 8.25 11C8.25 11.7293 8.53973 12.4288 9.05546 12.9445C9.57118 13.4603 10.2707 13.75 11 13.75Z" stroke="#2E2C34" stroke-width="1.5" stroke-linecap="round" stroke-linejoin="round"/>
</svg>
