<svg width="30" height="30" viewBox="0 0 30 30" fill="none" xmlns="http://www.w3.org/2000/svg">
<path d="M13.75 21.25H16.25V13.75H13.75V21.25ZM15 11.25C15.3542 11.25 15.6513 11.13 15.8913 10.89C16.1313 10.65 16.2508 10.3533 16.25 10C16.25 9.64583 16.13 9.34875 15.89 9.10875C15.65 8.86875 15.3533 8.74917 15 8.75C14.6458 8.75 14.3488 8.87 14.1088 9.11C13.8688 9.35 13.7492 9.64667 13.75 10C13.75 10.3542 13.87 10.6513 14.11 10.8913C14.35 11.1313 14.6467 11.2508 15 11.25ZM15 27.5C12.1042 26.7708 9.71333 25.1092 7.8275 22.515C5.94167 19.9208 4.99917 17.0408 5 13.875V6.25L15 2.5L25 6.25V13.875C25 17.0417 24.0571 19.9221 22.1712 22.5163C20.2854 25.1104 17.895 26.7717 15 27.5ZM15 24.875C17.1667 24.1875 18.9583 22.8125 20.375 20.75C21.7917 18.6875 22.5 16.3958 22.5 13.875V7.96875L15 5.15625L7.5 7.96875V13.875C7.5 16.3958 8.20833 18.6875 9.625 20.75C11.0417 22.8125 12.8333 24.1875 15 24.875Z" fill="#544C4C"/>
</svg>
