<svg width="15" height="18" viewBox="0 0 15 18" fill="none" xmlns="http://www.w3.org/2000/svg">
<path fill-rule="evenodd" clip-rule="evenodd" d="M9.06457 1.77126C9.65902 1.23264 10.4378 0.943239 11.2398 0.962984C12.0417 0.982728 12.8053 1.3101 13.3726 1.87733C13.9398 2.44455 14.2672 3.20818 14.2869 4.01012C14.3067 4.81205 14.0173 5.59087 13.4786 6.18532C13.4727 6.19184 13.4667 6.19824 13.4605 6.2045L5.70269 14.0717C5.69446 14.08 5.686 14.0881 5.67732 14.096C5.32065 14.4192 4.85336 14.5928 4.3722 14.581C3.89104 14.5691 3.43286 14.3727 3.09252 14.0324C2.75219 13.692 2.55576 13.2339 2.54392 12.7527C2.53207 12.2715 2.70571 11.8042 3.02888 11.4476C3.0346 11.4413 3.04045 11.4351 3.04643 11.429L9.55424 4.8118C9.79628 4.56569 10.192 4.5624 10.4381 4.80443C10.6842 5.04647 10.6875 5.44218 10.4455 5.68828L3.94815 12.2948C3.84495 12.4126 3.78968 12.5651 3.79354 12.7219C3.79749 12.8823 3.86296 13.035 3.97641 13.1485C4.08985 13.2619 4.24258 13.3274 4.40297 13.3314C4.5585 13.3352 4.70968 13.2809 4.82711 13.1793L12.5605 5.3369C12.8784 4.9814 13.049 4.51796 13.0373 4.04089C13.0254 3.55973 12.829 3.10155 12.4887 2.76121C12.1483 2.42088 11.6902 2.22445 11.209 2.21261C10.7333 2.20089 10.2711 2.3705 9.91602 2.68667L2.16837 10.5436C1.58317 11.1288 1.25439 11.9224 1.25439 12.75C1.25439 13.5776 1.58316 14.3713 2.16836 14.9565C2.75355 15.5417 3.54725 15.8705 4.37485 15.8705C5.20245 15.8705 5.99615 15.5417 6.58135 14.9565L12.9959 8.55756C13.2403 8.31378 13.6361 8.31426 13.8798 8.55864C14.1236 8.80301 14.1231 9.19874 13.8788 9.44252L7.46523 15.8404C6.64561 16.66 5.53397 17.1205 4.37485 17.1205C3.21573 17.1205 2.10409 16.66 1.28447 15.8404C0.464852 15.0208 0.00439453 13.9092 0.00439453 12.75C0.00439453 11.5917 0.464247 10.4807 1.28286 9.66128L9.0392 1.79558C9.04743 1.78724 9.05589 1.77913 9.06457 1.77126Z" fill="#5F5F5F"/>
</svg>
