<svg width="30" height="30" viewBox="0 0 30 30" fill="none" xmlns="http://www.w3.org/2000/svg">
<path d="M15 20.625C18.1066 20.625 20.625 18.1066 20.625 15C20.625 11.8934 18.1066 9.375 15 9.375C11.8934 9.375 9.375 11.8934 9.375 15C9.375 18.1066 11.8934 20.625 15 20.625Z" stroke="#544C4C" stroke-width="2" stroke-linecap="round" stroke-linejoin="round"/>
<path d="M21.5269 7.63086C21.8237 7.9043 22.105 8.18555 22.3706 8.47461L25.5698 8.93164C26.0911 9.83692 26.4929 10.8059 26.7651 11.8145L24.8198 14.4043C24.8198 14.4043 24.855 15.2012 24.8198 15.5996L26.7651 18.1895C26.4941 19.1984 26.0923 20.1676 25.5698 21.0723L22.3706 21.5293C22.3706 21.5293 21.8198 22.1035 21.5269 22.373L21.0698 25.5723C20.1645 26.0935 19.1955 26.4953 18.187 26.7676L15.5972 24.8223C15.1995 24.8574 14.7995 24.8574 14.4019 24.8223L11.812 26.7676C10.8031 26.4966 9.83389 26.0947 8.9292 25.5723L8.47217 22.373C8.18311 22.0996 7.90186 21.8184 7.62842 21.5293L4.4292 21.0723C3.90793 20.167 3.50615 19.198 3.23389 18.1895L5.1792 15.5996C5.1792 15.5996 5.14404 14.8027 5.1792 14.4043L3.23389 11.8145C3.50488 10.8055 3.90673 9.83633 4.4292 8.93164L7.62842 8.47461C7.90186 8.18555 8.18311 7.9043 8.47217 7.63086L8.9292 4.43164C9.83448 3.91037 10.8035 3.50859 11.812 3.23633L14.4019 5.18164C14.7995 5.14648 15.1995 5.14648 15.5972 5.18164L18.187 3.23633C19.196 3.50733 20.1651 3.90917 21.0698 4.43164L21.5269 7.63086Z" stroke="#544C4C" stroke-width="2" stroke-linecap="round" stroke-linejoin="round"/>
</svg>
