<svg width="285" height="220" viewBox="0 0 285 220" fill="none" xmlns="http://www.w3.org/2000/svg">
<path fill-rule="evenodd" clip-rule="evenodd" d="M94.3993 123.3V134.428C94.3993 134.428 94.3993 140.525 89.5083 141.822C84.6173 143.119 78.3 145.325 78.3 145.325L110.819 155.7L118.335 151.302C118.335 151.302 125.1 147.998 125.1 143.637C125.1 139.277 125.1 130.981 125.1 130.981L94.3993 123.3Z" fill="#D3DCED"/>
<path fill-rule="evenodd" clip-rule="evenodd" d="M79.2 144.439L111.161 155.378L121.175 149.084C121.175 149.084 125.198 146.043 125.198 142.659C125.198 139.275 125.198 129.314 125.198 129.314L126.9 128.7V142.039C126.9 142.039 126.64 148.321 122.09 150.574L111.161 157.5L79.2 146.138V144.439Z" fill="#BEC9DD"/>
<ellipse cx="141.3" cy="174.15" rx="27.9" ry="6.75" fill="#F0F7FC"/>
<ellipse cx="27" cy="139.5" rx="22.5" ry="5.4" fill="#F0F7FC"/>
<path fill-rule="evenodd" clip-rule="evenodd" d="M221.668 151.819L270.459 169.799C278.752 172.956 284.4 169.386 284.4 164.91C284.4 83.8009 284.4 44.4667 284.4 38.2668C283.952 29.6002 284.938 25.2 271.858 25.2C271.858 25.2 229.521 25.7978 223.661 25.7282C217.8 25.6586 217.8 31.7048 217.8 31.7048C217.8 31.7048 217.8 140.832 217.8 144.405C217.8 147.979 217.8 150.448 221.668 151.819Z" fill="#D3DCED"/>
<path fill-rule="evenodd" clip-rule="evenodd" d="M217.168 150.444C217.168 150.444 252.694 163.212 270.313 169.949C279.171 173.335 279.898 167.674 279.898 165.153C279.898 84.0548 279.898 40.1359 279.898 33.9368C279.967 26.1756 278.598 24.3696 271.006 24.3C271.006 24.3 225.021 24.4392 219.16 24.3696C213.3 24.3 213.3 30.3454 213.3 30.3454C213.3 30.3454 213.3 139.458 213.3 143.031C213.3 146.604 213.3 149.073 217.168 150.444Z" fill="#F0F7FC"/>
<path fill-rule="evenodd" clip-rule="evenodd" d="M215.106 79.5143C215.103 77.9279 216.512 76.7107 218.081 76.9447L274.09 85.2998C275.36 85.4893 276.3 86.58 276.3 87.8643V161.973C276.3 163.751 274.551 165.002 272.868 164.426L216.986 145.314C215.939 144.956 215.234 143.973 215.232 142.866L215.106 79.5143Z" fill="white"/>
<path fill-rule="evenodd" clip-rule="evenodd" d="M215.1 35.0422C215.1 33.5911 216.291 32.4225 217.742 32.4498L273.756 33.5059C275.169 33.5326 276.3 34.6854 276.3 36.0983V78.008C276.3 79.5867 274.901 80.799 273.339 80.5745L217.324 72.5256C216.048 72.3422 215.1 71.2487 215.1 69.9592V35.0422Z" fill="white"/>
<path fill-rule="evenodd" clip-rule="evenodd" d="M182.607 0C182.607 0 50.7083 18.6556 44.0616 19.5218C37.4149 20.388 37.8237 27.822 37.8237 27.822C37.8237 27.822 37.8237 88.1832 37.8237 90.643C37.8237 93.1028 39.3661 93.6812 41.1257 94.3579C41.1257 94.3579 176.543 157.248 181.988 159.145C183.335 159.615 185.056 159.199 186.961 155.301C188.865 151.402 193.5 124.601 193.5 75.6813C193.5 75.6813 193.234 122.575 193.234 72.4531C193.234 22.3309 188.596 0.553286 182.607 0Z" fill="#A6B6CC"/>
<path fill-rule="evenodd" clip-rule="evenodd" d="M179.114 0.933169C164.592 2.48323 45.4842 18.224 38.7468 19.0884C32.0095 19.9529 32.4239 27.372 32.4239 27.372C32.4239 27.372 32.4239 111.525 32.4239 113.979C32.4239 116.434 33.9873 117.012 35.7709 117.687C35.7709 117.687 176.723 158.085 182.242 159.979C184.882 160.884 187.2 159.033 187.2 154.002C187.2 154.002 187.2 15.7642 187.2 9.43338C187.2 3.10252 182.471 0.574885 179.114 0.933169Z" fill="#F0F7FC"/>
<path fill-rule="evenodd" clip-rule="evenodd" d="M181.565 0.123008C167.045 1.64591 41.5703 17.6677 36.8211 18.2252C32.0719 18.7827 32.4242 25.2 32.4242 25.2L187.2 8.54918C187.2 6.43485 187.2 5.2578 187.2 4.67208C187.2 -0.129385 184.921 -0.228997 181.565 0.123008Z" fill="#D3DCED"/>
<circle cx="38.7001" cy="22.5" r="0.9" fill="white"/>
<circle cx="44.1" cy="20.7" r="0.9" fill="white"/>
<circle cx="47.7001" cy="20.7" r="0.9" fill="white"/>
<path fill-rule="evenodd" clip-rule="evenodd" d="M165.6 73.7542C165.6 73.7542 165.6 139.603 165.6 142.917C165.6 146.232 163.75 148.251 160.975 147.409C158.199 146.567 50.6888 116.395 48.7973 115.643C46.9057 114.891 46.7417 114.28 46.8237 111.842C46.9057 109.403 46.7417 66.717 46.8237 65.377C46.9057 64.0369 47.4715 63.7123 49.4118 63.9931C51.3522 64.2738 159.877 69.9974 162.572 70.5125C165.266 71.0276 165.6 72.0183 165.6 73.7542Z" fill="white"/>
<path opacity="0.1" fill-rule="evenodd" clip-rule="evenodd" d="M136.744 56.7648C136.744 56.7648 129.221 89.489 128.488 92.6859C127.754 95.8827 125.631 97.1002 123.123 95.6619C120.615 94.2236 44.6921 60.1645 43.0221 59.0123C41.3521 57.8601 41.3281 57.2341 41.9469 54.9012C42.5658 52.5684 46.9713 32.6285 47.3473 31.3547C47.7232 30.081 48.3443 29.8956 50.1659 30.6041C51.9876 31.3126 132.019 51.8507 134.521 52.9553C137.023 54.06 137.128 55.0908 136.744 56.7648Z" fill="#3F6BA7"/>
<path fill-rule="evenodd" clip-rule="evenodd" d="M131.649 47.3949C131.649 47.3949 125.265 80.3635 124.643 83.5842C124.021 86.8048 121.942 88.0962 119.385 86.7468C116.829 85.3975 39.771 54.0264 38.0621 52.9335C36.3531 51.8407 36.3074 51.2159 36.845 48.8628C37.3826 46.5096 41.0941 26.4271 41.4257 25.1409C41.7573 23.8547 42.3715 23.6476 44.2166 24.2917C46.0617 24.9358 126.756 42.6498 129.295 43.6659C131.834 44.6819 131.974 45.7084 131.649 47.3949Z" fill="white"/>
<path fill-rule="evenodd" clip-rule="evenodd" d="M160.733 108.706C160.204 110.303 161.412 109.066 160.963 110.357C160.647 111.269 161.149 112.817 160.733 115.694C160.632 116.394 159.552 118.316 159.552 118.316C159.552 118.316 157.3 126.097 155.685 129.558C154.07 133.02 150.067 138.719 150.557 142.232C151.047 145.745 151.004 146.617 151.844 154.173C152.685 161.729 152.208 166.477 153.65 170.03L149.252 170.906C148.948 168.723 142.077 147.257 141.312 141.781C140.548 136.304 145.496 120.841 144.5 121.988C140.782 126.271 137.925 130.75 136.874 132.59C134.874 136.088 135.033 138.254 135.573 142.123C136.113 145.991 134.931 153.414 134.931 153.414C134.931 153.414 134.124 164.062 134.489 166.681L130.875 167.193C130.875 167.193 126.608 138.778 126.933 133.997C127.259 129.216 137.907 107.756 137.907 107.756C137.907 107.756 162.574 103.151 160.733 108.706Z" fill="#DBE3F3"/>
<path fill-rule="evenodd" clip-rule="evenodd" d="M144.5 121.988C140.782 126.271 137.925 130.75 136.874 132.59C134.874 136.088 135.033 138.254 135.573 142.123C136.113 145.991 134.931 153.414 134.931 153.414C134.931 153.414 134.124 164.062 134.489 166.681C134.489 166.681 133.144 166.872 132.471 166.967C131.939 167.042 132.701 151.182 132.78 145.86C132.863 140.236 131.256 136.618 131.367 134.981C131.635 131.046 139.6 118.334 143.491 113.794C144.328 112.818 144.827 114.807 145.188 114.45C146.407 113.244 144.76 111.954 144.222 114.45C143.859 116.132 144.76 121.689 144.5 121.988Z" fill="#BEC9DD"/>
<path fill-rule="evenodd" clip-rule="evenodd" d="M160.733 108.706C160.204 110.303 161.412 109.066 160.964 110.357C160.647 111.269 161.149 112.817 160.733 115.694C160.632 116.394 159.552 118.316 159.552 118.316C159.552 118.316 157.3 126.097 155.685 129.558C154.07 133.02 150.067 138.719 150.557 142.232C151.047 145.745 151.004 146.617 151.845 154.173C152.685 161.729 152.208 166.477 153.65 170.03C153.65 170.03 151.709 170.417 150.738 170.61C150.57 170.643 149.405 164.273 148.57 156.74C148.31 154.401 148.29 151.401 148.027 148.859C147.44 143.169 148.027 136.977 149.425 132.583C149.808 131.379 151.092 129.455 151.845 126.854C153.315 121.77 154.669 114.788 156.702 110.357C162.85 96.9578 161.489 106.425 160.733 108.706Z" fill="#BEC9DD"/>
<path fill-rule="evenodd" clip-rule="evenodd" d="M143.261 76.798C141.25 75.9085 138.668 74.7167 136.657 72.2262C134.552 69.6204 130.5 60.4852 130.5 60.4852L131.206 54.9C131.206 54.9 135.503 62.62 140.339 66.2481C145.176 69.8763 148.334 69.8763 148.334 69.8763C148.334 69.8763 149.433 79.5283 143.261 76.798Z" fill="#134AAD"/>
<path fill-rule="evenodd" clip-rule="evenodd" d="M155.3 69.8523C159.151 74.2617 160.05 86.6375 160.727 94.8733C161.404 103.109 161.101 116.394 160.286 117.3C159.471 118.205 157.02 121.214 150.369 120.488C143.718 119.763 141.124 115.007 141.124 115.007C141.124 115.007 138.324 109.619 136.319 109.619C134.315 109.619 140.057 99.3735 141.671 92.3988C142.829 87.3981 142.358 80.7644 142.924 76.235C143.135 74.542 145.038 70.0007 145.53 69.7309C147.269 68.778 146.4 69.9028 147.75 68.3116C149.099 66.7204 149.994 63.9 150.856 63.9C151.718 63.9 151.449 65.443 155.3 69.8523Z" fill="#1255CC"/>
<path fill-rule="evenodd" clip-rule="evenodd" d="M154.376 69.4164C158.701 73.7982 159.711 86.0967 160.47 94.2811C160.942 99.3581 161.181 105.758 161.075 110.101C161.011 112.76 160.818 115.804 160.47 116.146C160.155 116.456 158.844 117.78 157.214 118.582C155.957 119.2 154.543 119.57 153.353 119.7C153.291 119.707 157.462 111.653 157.475 105.391C157.483 101.258 157.43 96.4867 157.475 95.4779C157.714 90.0304 157.112 82.6879 156.33 77.5679C155.548 72.4479 151.086 67.0863 151.202 66.901L151.874 66.6C152.473 67.3683 153.274 68.2999 154.376 69.4164Z" fill="#134AAD"/>
<path fill-rule="evenodd" clip-rule="evenodd" d="M105.673 84.6C105.673 84.6 103.835 83.507 102.145 82.6795C100.454 81.8521 99.1975 81.6653 99.1975 81.4406C99.1975 81.2655 96.0408 79.3619 94.406 78.268C93.9413 77.9571 93.6001 77.3413 93.6001 77.178C93.6001 76.4497 94.656 76.6963 94.656 76.6963L96.2484 77.5782L97.9818 78.1916L100.371 78.8591C100.371 78.8591 99.7912 78.2891 99.6514 78.1916C99.5117 78.0941 98.9933 77.6596 98.9933 77.6596C98.9933 77.6596 98.4756 77.2791 98.9933 76.6963C99.511 76.1134 100.419 76.9993 100.685 77.1545C100.951 77.3097 101.868 77.67 101.868 77.67C101.868 77.67 103.573 78.4799 104.191 79.3166C104.809 80.1533 105.141 80.8089 105.141 80.8089L106.2 81.4406L105.673 84.6Z" fill="#DBE3F3"/>
<path fill-rule="evenodd" clip-rule="evenodd" d="M150.721 83.4745C147.908 87.3337 139.151 88.3562 135.312 88.9665C131.472 89.5768 124.705 89.9848 120.479 89.5989C116.252 89.213 106.022 85.2116 104.24 83.3471L104.808 80.1662C104.808 80.1662 114.218 82.8825 121.055 82.7217C127.892 82.5609 133.877 81.283 145.155 75.9218" fill="#1255CC"/>
<path fill-rule="evenodd" clip-rule="evenodd" d="M145.726 86.5837C141.899 88.0453 136.971 88.7027 135.311 88.9665C131.472 89.5768 124.705 89.9848 120.479 89.5989C118.358 89.4053 114.726 88.3015 111.408 87.0142C111.408 87.0142 120.573 88.5741 133.887 86.5837C139.464 85.7501 144.319 84.7971 147.478 82.2988C149.347 80.8206 151.329 76.2773 151.329 76.2773C151.329 76.2773 151.324 80.7651 150.6 82.2988C149.323 85.0043 146.609 86.2467 145.726 86.5837Z" fill="#134AAD"/>
<path fill-rule="evenodd" clip-rule="evenodd" d="M135.9 72C133.551 69.5636 128.7 60.667 128.7 60.667L129.816 55.8C129.816 55.8 132.108 59.0933 133.229 60.3742C134.244 61.5344 133.702 62.6118 134.134 65.2109C134.423 66.948 135.9 72 135.9 72Z" fill="#0D419C"/>
<path fill-rule="evenodd" clip-rule="evenodd" d="M129.6 168.3V170.1H134.1L133.623 168.3" fill="#BEC9DD"/>
<path fill-rule="evenodd" clip-rule="evenodd" d="M150.3 171V172.8H155.7L155.114 171" fill="#BEC9DD"/>
<path fill-rule="evenodd" clip-rule="evenodd" d="M147.936 176.845C151.89 176.325 153.93 176.429 155.11 175.317C156.29 174.206 155.11 171.9 155.11 171.9H150.04C150.04 171.9 139.5 174.172 139.5 176.096C139.5 176.54 139.541 177.177 140.471 177.241C141.97 177.345 143.983 177.365 147.936 176.845Z" fill="#0E2E68"/>
<path fill-rule="evenodd" clip-rule="evenodd" d="M134.989 168.3C134.989 168.3 135.11 171.207 133.877 172.693C132.644 174.179 120.747 173.885 119.776 172.693C118.804 171.501 130.298 168.3 130.298 168.3" fill="#0E2E68"/>
<path fill-rule="evenodd" clip-rule="evenodd" d="M18 129.916C18 129.916 17.6356 131.249 17.6927 132.812C17.7499 134.375 16.2 129.64 16.2 129.64C16.2 129.64 16.5661 127.988 16.7136 127.813C16.8611 127.637 18 129.916 18 129.916Z" fill="#1255CC"/>
<path fill-rule="evenodd" clip-rule="evenodd" d="M18.1293 133.854C18.1293 133.854 18.2917 134.718 18.3306 135.141C18.4907 136.878 18.5842 138.069 18.7877 138.522C19.052 139.11 19.6638 139.237 19.825 139.548C20.0129 139.91 19.7869 140.391 19.4287 140.545C18.7632 140.829 17.7839 140.645 17.7839 140.645C17.7839 140.645 17.0851 140.353 16.9607 140.055C15.8919 137.495 15.2861 132.264 15.3422 131.619C15.4258 130.656 16.2446 130.167 16.2446 130.167" fill="#0E2E68"/>
<path fill-rule="evenodd" clip-rule="evenodd" d="M17.1001 100.8C17.1001 100.8 22.0575 112.729 22.0575 114.536C22.0575 115.452 21.1255 116.592 20.5957 118.025C20.0659 119.458 19.7552 121.616 19.0377 124.284C18.1945 127.42 17.1001 130.224 17.1001 130.464C17.1001 130.908 18.524 133.321 18.8255 133.195C19.127 133.07 23.3876 125.592 24.6776 122.656C26.3924 118.753 28.093 115.552 27.8824 113.994C27.3287 109.898 25.151 104.268 25.151 104.268L17.1001 100.8Z" fill="#BEC9DD"/>
<path fill-rule="evenodd" clip-rule="evenodd" d="M26.3073 95.0377C26.3073 95.0377 32.3615 109.995 32.3615 112.093C32.3615 114.192 32.2598 132.911 33.3001 135.585L30.8604 135.9C30.8604 135.9 28.5611 127.983 28.1115 124.237C27.6619 120.49 27.8082 115.749 27.5737 114.824C27.3391 113.9 26.4833 111.671 22.9501 107.341C19.4169 103.011 16.3725 101.557 14.9088 99.3034C14.0362 97.8592 12.6001 93.6 12.6001 93.6" fill="#DBE3F3"/>
<path fill-rule="evenodd" clip-rule="evenodd" d="M34.0304 135L34.1999 136.8L32.3999 136.509L32.4292 135.192L34.0304 135Z" fill="#1255CC"/>
<path fill-rule="evenodd" clip-rule="evenodd" d="M32.3403 137.511C32.0604 137.629 31.8404 140.794 33.6048 140.794C34.8353 140.794 38.0423 141.03 40.0039 141.03C40.9696 141.03 41.6209 140.84 41.7219 140.458C41.9519 139.586 35.073 137.631 35.073 137.631C35.073 137.631 32.6203 137.394 32.3403 137.511Z" fill="#0E2E68"/>
<path fill-rule="evenodd" clip-rule="evenodd" d="M25.8539 71.8684C25.8539 71.8684 32.7933 70.1929 34.8141 69.4444C36.835 68.696 38.2421 67.3814 40.0436 66.1317C41.845 64.882 45.213 60.4937 45.9238 59.8512L45.1862 58.0843C45.1862 58.0843 37.5808 64.0393 34.455 65.0623C32.684 65.6419 30.1948 66.1568 27.8822 65.8038C27.4736 65.7414 27.0787 65.1714 27.0787 65.1714C27.0787 65.1714 25.952 64.8959 24.8295 65.3417" fill="#1255CC"/>
<path fill-rule="evenodd" clip-rule="evenodd" d="M26.3899 71.6934C30.5717 70.6743 33.5445 69.9146 34.8141 69.4444C36.8349 68.696 38.2421 67.3813 40.0435 66.1317C41.8449 64.882 45.2129 60.4937 45.9237 59.8512C45.9237 59.8512 45.7596 59.4582 45.6776 59.2616C45.5137 58.8692 39.4838 65.4313 36.1058 67.6703C33.9185 69.12 32.1089 69.2584 29.1538 70.4461C26.1988 71.6337 27.633 70.9152 27.2519 71.1038C26.7864 71.334 26.375 71.697 26.3899 71.6934Z" fill="#134AAD"/>
<path fill-rule="evenodd" clip-rule="evenodd" d="M35.6264 46.0871C35.6264 46.0871 36.2266 44.764 36.6666 43.5549C37.1065 42.3458 37.1637 41.4661 37.3053 41.4561C37.4156 41.4483 37.544 39.6197 38.1546 38.4375C38.3281 38.1015 38.6997 37.8375 38.8026 37.8303C39.2614 37.798 39.1569 38.5411 39.1569 38.5411L38.9883 39.2299L38.9395 40.5237L38.9883 42.1551C38.9883 42.1551 39.1798 42.0137 39.2423 41.9287C39.3157 41.8289 39.6038 40.8358 39.996 41.169C40.3881 41.5022 39.914 42.2255 39.8291 42.4169C39.7441 42.6083 39.516 43.195 39.516 43.195C39.516 43.195 39.3 43.9771 38.8026 44.4429C38.3051 44.9088 37.9895 45.5496 37.9895 45.5496L37.6425 46.3122L35.6264 46.0871Z" fill="#DBE3F3"/>
<path fill-rule="evenodd" clip-rule="evenodd" d="M25.5738 68.5195C25.5738 68.5195 30.8804 64.2358 32.3225 61.1566C33.7645 58.0774 38.1856 45.0815 38.1856 45.0815L36.3577 44.6372C36.3577 44.6372 30.734 56.3673 29.6695 57.8242C28.605 59.2812 22.0595 64.5411 22.0595 64.5411L22.802 68.2752L25.5738 68.5195Z" fill="#1255CC"/>
<path fill-rule="evenodd" clip-rule="evenodd" d="M28.5483 65.9262C30.4077 64.1489 31.6658 62.5591 32.3226 61.1566C33.0672 59.5666 37.2841 47.549 37.2841 47.549C37.2841 47.549 35.7638 50.0663 35.2385 51.0388C34.3907 52.6087 33.6295 55.0603 32.8592 56.8164C31.3764 60.1969 30.3748 61.8558 28.7468 63.5419C27.1189 65.2281 24.2323 65.7347 24.2323 65.7347L28.5483 65.9262Z" fill="#134AAD"/>
<path fill-rule="evenodd" clip-rule="evenodd" d="M26.3296 72.0951C26.3296 72.0951 27.1991 72.7586 27.1473 74.1758C27.0769 76.1023 25.1339 76.9088 25.0459 77.125C24.958 77.3412 25.8234 90.3969 28.5127 94.2635C28.6174 94.414 28.6917 94.4908 28.7794 94.5942C28.8671 94.6977 28.6533 94.7847 28.5632 94.8223C25.4156 96.1369 22.3905 96.5744 19.488 96.1347C15.0097 95.4564 14.7999 93.8869 12.99 93.3848C11.1802 92.8827 16.2466 84.405 16.4425 82.7201C16.8595 79.134 16.4425 64.8 16.4425 64.8L24.6454 65.6247L27.1085 66.95L26.3296 72.0951Z" fill="#1255CC"/>
<path fill-rule="evenodd" clip-rule="evenodd" d="M25.2 66.6C25.2 66.6 24.4802 63.9314 24.4802 62.9704C24.4802 62.0093 20.7845 62.1094 20.7845 62.1094L19.8 66.0022" fill="#DBE3F3"/>
<path fill-rule="evenodd" clip-rule="evenodd" d="M22.001 60.1124C23.2038 61.2361 25.6927 62.446 26.5371 62.0082C27.3814 61.5704 26.878 55.1009 26.5371 54.4411C26.1961 53.7813 23.2038 54.1084 23.2038 54.1084C23.2038 54.1084 20.7982 58.9887 22.001 60.1124Z" fill="#DBE3F3"/>
<path opacity="0.231394" fill-rule="evenodd" clip-rule="evenodd" d="M16.1558 83.5786C16.4581 83.8005 15.8112 84.4622 15.1209 85.9563C14.5939 87.0971 13.125 90.6876 13.125 90.6876C18.0844 90.5132 20.7542 83.479 20.6731 81.1393C20.592 78.7996 20.8872 73.5474 21.5028 72.3178C22.1183 71.0882 22.8953 68.4546 23.2924 67.8114C23.6895 67.1683 23.3234 60.915 23.2924 60.0211C23.2614 59.1273 22.0613 62.1291 20.9311 63.375C9.54994 75.9213 13.7461 81.8098 16.1558 83.5786Z" fill="black"/>
<path fill-rule="evenodd" clip-rule="evenodd" d="M27 52.8158C27 51.4991 23.7371 50.4 22.387 50.4C21.037 50.4 18.9903 51.6416 18.5799 54.3708C18.1694 57.1 20.2435 58.9356 17.4659 61.4497C14.6883 63.9637 12.9142 62.5917 10.6905 64.8591C8.46691 67.1266 9.49231 69.3551 7.57154 70.5401C5.65077 71.7252 3.71072 71.8253 2.31386 73.364C0.916999 74.9026 -0.707181 78.1446 0.327632 79.5291C1.36244 80.9136 2.38605 79.1291 3.26864 80.0213C4.15124 80.9136 4.8657 87.3 9.73667 87.3C14.6076 87.3 17.4659 80.4266 17.4659 78.1066C17.4659 75.7867 17.9342 70.5954 18.5799 69.3991C19.2255 68.2028 21.3402 66.5181 21.7517 65.895C22.1631 65.2718 22.7276 62.336 22.7276 61.4497C22.7276 60.5634 23.4855 57.4128 23.4855 57.4128C23.4855 57.4128 22.387 57.521 22.387 56.5938C22.387 55.6666 23.6496 55.782 23.6496 55.782C23.6496 55.782 25.4954 55.2237 25.8483 54.7135C26.0183 54.4677 27 53.4983 27 52.8158Z" fill="#0E2E68"/>
<path fill-rule="evenodd" clip-rule="evenodd" d="M153.701 66.9365C153.701 66.9365 152.489 65.1785 152.005 63.378C151.522 61.5776 143.912 63.9007 143.912 63.9007L146.788 70.2259C146.788 70.2259 147.514 70.5406 149.112 69.7379C150.711 68.9352 153.701 66.9365 153.701 66.9365Z" fill="#DBE3F3"/>
<path fill-rule="evenodd" clip-rule="evenodd" d="M151.591 62.7692C151.591 62.7692 142.662 68.1125 141.015 66.9478C139.367 65.7831 141.269 54.7368 142.203 54.2546C143.136 53.7725 148.864 50.0338 151.212 53.2506C153.559 56.4673 151.591 62.7692 151.591 62.7692Z" fill="#DBE3F3"/>
<path fill-rule="evenodd" clip-rule="evenodd" d="M153.701 66.9364C153.701 66.9364 152.489 65.1785 152.005 63.378C151.938 63.1267 151.766 62.9356 151.49 62.8048C151.442 62.7821 151.629 62.7583 151.575 62.7393C151.499 62.7125 152.117 61.2483 152.007 61.229C151.826 61.197 150.795 61.3774 150.382 61.7488C150.023 62.0714 150.505 62.9 150.524 62.9885C150.572 63.2201 150.775 63.5641 150.834 63.8356C150.955 64.3982 152.502 67.7206 152.618 67.645C152.785 67.5362 152.911 67.4543 152.996 67.3996C153.212 67.2605 153.701 66.9364 153.701 66.9364Z" fill="#BEC9DD"/>
<path fill-rule="evenodd" clip-rule="evenodd" d="M150.713 61.7333C148.657 61.8758 148.417 61.8444 148.113 60.1603C147.81 58.4762 149.68 58.644 148.66 57.3397C147.641 56.0353 146.528 58.03 146.528 58.03L146.188 59.7852L144.764 59.5077L145.311 56.6871C145.311 56.6871 143.209 57.918 141.073 57.5018C138.937 57.0856 137.768 51.3294 140.617 49.4355C143.465 47.5415 143.179 51.4794 144.693 51.7744C146.206 52.0693 152.094 49.6058 152.947 54.3294C153.8 59.0531 152.769 61.5907 150.713 61.7333Z" fill="#0E2E68"/>
<path fill-rule="evenodd" clip-rule="evenodd" d="M148.718 62.5542C148.718 62.5542 146.193 65.8991 144.901 66.1227L145.535 67.4464C145.535 67.4464 148.195 65.2485 148.423 64.0758C148.65 62.9032 148.718 62.5542 148.718 62.5542Z" fill="#BEC9DD"/>
<path fill-rule="evenodd" clip-rule="evenodd" d="M26.1 62.2187C26.1 62.2187 25.5858 62.022 25.2598 61.8375C24.9338 61.653 24.3 61.2 24.3 61.2C24.3 61.2 24.7928 61.9021 25.1094 62.2187C25.4261 62.5354 26.1 63 26.1 63V62.2187Z" fill="#BEC9DD"/>
<path fill-rule="evenodd" clip-rule="evenodd" d="M24.202 76.9943C24.202 76.9943 24.1961 76.6278 24.202 76.5249C24.2078 76.4221 24.2347 76.4197 24.2347 76.4197C24.2347 76.4197 23.7894 76.4616 23.613 76.3771C23.1134 76.1376 22.7527 75.7932 22.5 75.6C22.5 75.6 23.0015 76.0976 23.5507 77.1939C24.0999 78.2902 24.3 80.1 24.3 80.1" fill="#134AAD"/>
<path fill-rule="evenodd" clip-rule="evenodd" d="M47.419 60.1736L48.3395 59.4936C48.3395 59.4936 50.7312 59.2588 51.6596 59.4936C52.5879 59.7283 54.5396 60.6281 54.8295 60.1736C54.9159 60.0382 54.9734 59.9322 54.6882 59.72C54.0164 59.2202 52.6778 58.7993 52.3089 58.6456C51.94 58.4919 49.945 57.8065 49.6499 57.4707C49.475 57.2716 49.792 57.1125 50.1952 56.9552C50.4721 56.8472 50.8178 56.7639 50.9597 56.5734C51.3082 56.1053 51.0719 55.8 50.85 55.8C50.6282 55.8 49.365 56.1277 49.365 56.1277C49.365 56.1277 48.4238 56.4783 47.787 56.9552C47.1502 57.4321 46.8 58.6456 46.8 58.6456" fill="#EAF0FB"/>
<path fill-rule="evenodd" clip-rule="evenodd" d="M40.4085 46.76L63.6508 42.3L75.6001 58.2397L63.6508 61.2L41.608 51.8991C41.608 51.8991 39.0873 50.6968 39.7311 48.6813L40.4085 46.76Z" fill="#E2ECF4"/>
<path fill-rule="evenodd" clip-rule="evenodd" d="M66.6001 61.4009L115.021 50.4L126.9 71.0881L124.687 81.9H121.813L117.832 81.7607L66.6001 61.4009Z" fill="#F0F7FC"/>
<circle cx="85.95" cy="44.55" r="4.95" fill="#D3DCED"/>
<circle cx="247.05" cy="43.65" r="4.95" fill="#D3DCED"/>
<path fill-rule="evenodd" clip-rule="evenodd" d="M221.769 109.315C220.174 109.017 218.7 110.241 218.7 111.863L218.7 115.96C218.7 117.167 219.533 118.214 220.709 118.486L247.023 124.566C248.648 124.942 250.2 123.708 250.2 122.04V116.779C250.2 115.531 249.31 114.46 248.083 114.231L221.769 109.315Z" fill="#4FAFCB"/>
<path fill-rule="evenodd" clip-rule="evenodd" d="M220.958 98.3778C219.789 98.1469 218.7 99.0419 218.7 100.234C218.7 101.126 219.323 101.897 220.196 102.084L262.791 111.204C264.185 111.502 265.5 110.439 265.5 109.013C265.5 107.944 264.743 107.023 263.694 106.816L220.958 98.3778Z" fill="#E2ECF4"/>
<path fill-rule="evenodd" clip-rule="evenodd" d="M222.884 92.9631C221.638 92.7505 220.5 93.7106 220.5 94.9749C220.5 95.9584 221.201 96.802 222.168 96.9814L269.872 105.832C271.343 106.105 272.7 104.976 272.7 103.481C272.7 102.315 271.86 101.319 270.71 101.123L222.884 92.9631Z" fill="#E2ECF4"/>
<path fill-rule="evenodd" clip-rule="evenodd" d="M274.5 76.5V62.4721L262.11 44.1L234 71.3115L274.5 76.5Z" fill="#F0F7FC"/>
<path fill-rule="evenodd" clip-rule="evenodd" d="M217.8 60.5359L217.8 69.2619L230.855 71.1L243 58.6009L232.75 48.6L217.8 60.5359Z" fill="#E2ECF4"/>
<path fill-rule="evenodd" clip-rule="evenodd" d="M220.472 119.63C220.897 119.273 221.687 117.62 221.809 117.371C221.93 117.122 222.3 115.82 222.3 115.149C222.3 114.478 222.302 112.752 221.661 113.17C221.021 113.588 221.254 114.029 221.254 114.492C221.254 114.955 220.957 115.305 220.957 115.305C220.957 115.305 220.503 115.972 220.173 115.406C219.843 114.839 219.88 112.939 219.88 112.939V112.5C219.88 112.5 218.293 113.667 218.156 114.282C218.019 114.898 217.8 115.278 217.8 115.726C217.8 116.173 218.156 118.519 218.156 118.519C218.156 118.519 220.046 119.987 220.472 119.63Z" fill="#DBE3F3"/>
<path fill-rule="evenodd" clip-rule="evenodd" d="M169.2 17.1L97.2 24.1847V27L169.2 20.6579V17.1Z" fill="#D3DCED"/>
<path fill-rule="evenodd" clip-rule="evenodd" d="M106.2 21.9205V27L111.6 26.7359V21.6L106.2 21.9205Z" fill="#F0F7FC"/>
<path fill-rule="evenodd" clip-rule="evenodd" d="M140.4 18.3205V23.4L145.8 23.1359V18L140.4 18.3205Z" fill="#F0F7FC"/>
<path fill-rule="evenodd" clip-rule="evenodd" d="M121.4 20.7931L121.549 25.0416L126.499 24.6481L126.348 20.3524L121.4 20.7931Z" fill="#F0F7FC"/>
<path fill-rule="evenodd" clip-rule="evenodd" d="M154.071 18.2259L154.22 22.4744L159.171 22.0809L159.02 17.7852L154.071 18.2259Z" fill="#F0F7FC"/>
<path fill-rule="evenodd" clip-rule="evenodd" d="M56.234 93.8801C55.0709 93.6682 54 94.5617 54 95.7439C54 96.646 54.636 97.423 55.5204 97.6012L82.9192 103.122C84.2536 103.39 85.5 102.37 85.5 101.009C85.5 99.9676 84.7555 99.0752 83.7311 98.8886L56.234 93.8801Z" fill="#E2ECF4"/>
<path fill-rule="evenodd" clip-rule="evenodd" d="M58.0101 102.163C56.4032 101.835 54.8999 103.063 54.8999 104.703L54.8999 107.643C54.8999 108.837 55.7149 109.876 56.8741 110.161L78.6885 115.521C80.3223 115.922 81.8999 114.685 81.8999 113.003V109.145C81.8999 107.913 81.0322 106.851 79.8245 106.605L58.0101 102.163Z" fill="#4FAFCB"/>
<path fill-rule="evenodd" clip-rule="evenodd" d="M56.8545 86.5917C55.8259 86.436 54.8999 87.2324 54.8999 88.2728C54.8999 89.1047 55.5019 89.8144 56.3226 89.9501L93.1248 96.0383C94.3163 96.2354 95.3999 95.3163 95.3999 94.1086C95.3999 93.1414 94.693 92.3195 93.7367 92.1748L56.8545 86.5917Z" fill="#E2ECF4"/>
<path fill-rule="evenodd" clip-rule="evenodd" d="M57.0139 79.402C55.8966 79.247 54.8999 80.115 54.8999 81.243C54.8999 82.1605 55.5693 82.9407 56.4761 83.0801L93.8392 88.8236C95.1331 89.0225 96.2999 88.0213 96.2999 86.7122C96.2999 85.6459 95.5135 84.7429 94.4573 84.5964L57.0139 79.402Z" fill="#E2ECF4"/>
<ellipse cx="218.7" cy="212.85" rx="31.5" ry="6.75" fill="#F0F7FC"/>
<path fill-rule="evenodd" clip-rule="evenodd" d="M205.676 197.347C206.972 198.106 206.895 200.954 206.895 200.954C206.895 200.954 206.999 203.55 207.418 204.847C207.837 206.143 208.549 207.551 209.025 207.551C209.195 207.551 211.006 207.242 211.46 209.493C211.913 211.745 208.429 213.3 206.895 213.3C204.854 213.3 203.545 211.585 203.208 210.067C202.871 208.548 203.038 208.715 202.247 205.87C201.456 203.024 201.024 201.419 201.024 201.419C201.024 201.419 200.203 198.422 201.464 198.106C202.726 197.79 204.38 196.588 205.676 197.347Z" fill="#0E2E68"/>
<path fill-rule="evenodd" clip-rule="evenodd" d="M223.292 178.425C223.292 178.425 235.679 169.835 239.056 174.363C242.433 178.89 238.063 188.858 236.235 190.584C234.407 192.31 216.194 204.3 216.194 204.3L212.97 200.004C212.97 200.004 216.991 198.299 217.744 197.719C221.486 194.836 222.931 194.133 226.469 190.584C230.006 187.035 230.944 185.079 232.105 183.321C232.105 183.321 231.163 184.717 230.639 185.431C228.392 188.492 225.774 190.246 224.506 191.47C218.841 196.943 214.014 199.632 209.467 199.227C199.826 198.368 205.505 185.431 205.505 185.431L223.292 178.425Z" fill="#DBE3F3"/>
<path fill-rule="evenodd" clip-rule="evenodd" d="M219.774 181.374C219.774 181.374 220.253 179.241 221.118 178.661C229.942 172.742 236.921 172.045 238.044 173.365C238.33 173.701 238.527 174.017 238.701 174.451C239.13 175.524 239.385 176.871 239.399 178.19C239.431 181.097 238.395 184.421 237.354 186.817C236.651 188.437 235.76 189.802 235.232 190.322C233.425 192.102 215.575 204.3 215.575 204.3L211.982 200.154C211.982 200.154 216.092 198.108 216.836 197.51C220.535 194.537 221.964 193.812 225.461 190.152C228.958 186.492 229.885 184.475 231.032 182.662C231.032 182.662 230.101 184.101 229.583 184.837C227.362 187.995 224.774 189.803 223.521 191.066C219.471 195.147 215.03 198.733 211.162 200.006C209.681 200.494 208.255 200.269 207.01 200.154C197.48 199.268 204.738 184.837 204.738 184.837L219.774 181.374Z" fill="#BEC9DD"/>
<path fill-rule="evenodd" clip-rule="evenodd" d="M230.877 186.43C231.467 185.532 231.234 184.5 231.234 184.5C231.234 184.5 230.412 185.745 229.895 186.43C227.675 189.367 225.142 191.115 223.89 192.289C221.35 194.673 219.057 196.403 216.892 197.768C215.2 198.835 213.801 199.921 212.46 200.343C212.277 200.4 212.65 200.7 212.65 200.7C213.932 200.463 216.388 199.014 218.788 197.446C221.188 195.879 225.586 191.726 225.586 191.726C225.586 191.726 230.286 187.328 230.877 186.43Z" fill="#9BA9C2"/>
<path fill-rule="evenodd" clip-rule="evenodd" d="M234.9 173.912C234.9 173.912 234.725 170.1 231.312 170.1C227.899 170.1 223.326 172.417 223.326 172.417L222.3 180.9" fill="#DBE3F3"/>
<path fill-rule="evenodd" clip-rule="evenodd" d="M223.539 179.768C223.539 179.768 232.098 174.103 234.9 173.62C234.9 173.62 234.687 171.22 234.279 170.727C233.352 169.605 231.684 170.235 230.098 170.727C226.673 171.79 222.874 173.916 222.536 175.334C222.198 176.751 222.344 180.9 222.344 180.9L223.539 179.768Z" fill="#BEC9DD"/>
<path fill-rule="evenodd" clip-rule="evenodd" d="M249.297 124.663C249.297 124.663 240.001 135.835 239.084 137.502C238.168 139.169 232.449 145.983 232.449 145.983C232.449 145.983 225.763 153.164 225.077 155.702C224.391 158.239 223.535 164.318 223.535 165.779C223.535 167.24 224.203 176.006 223.181 178.167C222.159 180.328 221.319 180.248 218.653 182.449C215.987 184.649 213.885 187.089 211.582 188.249C209.28 189.408 207.923 189.523 207.923 189.523L203.4 190.8L203.879 144.212L215.962 127.482L218.584 117.9L220.711 119.034L220.314 127.482L218.653 144.212L220.711 145.983C220.711 145.983 222.687 145.945 223.181 145.48C229.767 139.279 234.04 135.902 236.426 132.992C238.813 130.083 246.908 123.872 247.489 123.553C249.376 122.515 249.297 124.663 249.297 124.663Z" fill="#1255CC"/>
<path fill-rule="evenodd" clip-rule="evenodd" d="M249.881 126.756C249.881 126.756 239.673 138.517 239.029 139.992C238.384 141.467 233.727 146.799 233.191 147.581C232.655 148.363 226.606 154.874 225.928 157.353C225.251 159.831 224.406 165.768 224.406 167.195C224.406 168.622 225.065 177.183 224.057 179.293C223.42 180.626 222.854 181.087 221.861 181.786C221.281 182.194 221.368 173.52 221.486 168.525C221.603 163.53 221.486 161.747 222.943 157.353C224.401 152.958 226.521 150.134 226.521 150.134C226.521 150.134 237.243 139.274 238.587 137.41C242.264 132.31 249.523 125.054 249.782 125.1C250.565 125.24 249.881 126.756 249.881 126.756Z" fill="#134AAD"/>
<path opacity="0.231394" fill-rule="evenodd" clip-rule="evenodd" d="M213.029 163.51C214.206 174.805 216.899 179.271 216.9 185.333C216.901 191.394 213.343 198.121 211.023 199.272C210.099 199.732 204.961 200.089 203.72 199.467C202.885 199.049 205.055 197.04 205.055 197.04L203.4 192.103C203.4 192.103 207.945 169.889 206.263 159.549C205.416 154.34 207.71 145.825 210.72 143.263C211.692 142.434 213.029 145.821 213.029 145.821C213.029 145.821 211.852 152.216 213.029 163.51Z" fill="black"/>
<path fill-rule="evenodd" clip-rule="evenodd" d="M222.3 138.796C222.3 142.829 220.545 145.8 220.545 145.8L216.9 139.628C216.9 139.628 218.461 133.2 219.29 133.2C220.119 133.2 221.959 133.2 221.959 133.2C221.959 133.2 222.3 134.762 222.3 138.796Z" fill="#DBE3F3"/>
<path fill-rule="evenodd" clip-rule="evenodd" d="M213.101 148.251C215.806 148.66 217.497 148.744 220.056 147.077C222.615 145.41 222.838 143.419 222.838 142.41C222.838 141.401 220.925 139.252 220.651 138.998C220.376 138.744 220.925 138.189 220.925 137.411C220.925 136.634 220.651 136.049 220.651 136.049C222.461 136.049 223.2 134.45 223.2 133.796C223.2 133.141 222.887 130.892 222.406 130.439C221.925 129.987 220.651 126 214.441 126C208.23 126 206.1 134.033 206.1 135.674C206.1 137.314 206.1 140.528 206.1 140.528C206.1 140.528 206.762 143.644 207.783 144.909C209.254 146.73 210.395 147.841 213.101 148.251Z" fill="#143B82"/>
<path fill-rule="evenodd" clip-rule="evenodd" d="M211.971 147.359C214.738 147.755 216.467 147.836 219.084 146.225C221.702 144.614 221.93 142.689 221.93 141.714C221.93 140.739 219.973 138.663 219.693 138.417C219.412 138.172 219.973 137.635 219.973 136.883C219.973 136.132 219.693 135.567 219.693 135.567C221.544 135.567 222.3 134.021 222.3 133.389C222.3 132.757 221.98 130.583 221.488 130.145C221.175 129.867 220.532 128.203 218.467 127.031C217.289 126.363 211.971 128.303 210.489 131.58C209.007 134.857 209.445 140.492 210.489 141.714C211.297 142.659 208.051 145.822 208.963 146.372C209.751 146.847 210.689 147.176 211.971 147.359Z" fill="#0E2E68"/>
<path fill-rule="evenodd" clip-rule="evenodd" d="M210.683 142.979C210.683 142.979 209.435 144.136 208.771 144.978C208.107 145.82 205.967 148.159 205.205 149.33C204.251 150.796 203.71 151.219 203.407 153.858C203.104 156.496 203.338 157.57 203.956 160.201C204.666 163.221 206.289 166.648 206.632 168.095C207.274 170.801 210.683 176.449 210.683 176.449C210.683 176.449 212.078 180.244 211.092 182.638C210.105 185.032 209.526 185.449 209.526 185.449C209.526 185.449 210.977 189.849 208.771 193.269C206.565 196.689 202.922 199.096 200.975 199.762C200.096 200.063 198.637 200.838 197.908 201.996C197.021 203.402 196.932 205.2 196.717 205.2C196.472 205.2 195.282 203.423 194.613 201.661C194.211 200.605 193.51 197.711 192.638 196.394C191.765 195.076 189 192.446 189 187.214C189 181.982 194.613 175.062 194.613 168.738C194.613 162.415 191.186 162.951 191.186 155.764C191.186 148.577 200.234 143.534 200.234 143.534C200.234 143.534 205.31 140.766 206.039 139.876C206.378 139.462 208.781 139.145 210.148 140.309C210.745 140.818 210.683 142.979 210.683 142.979Z" fill="#143B82"/>
<path fill-rule="evenodd" clip-rule="evenodd" d="M211.574 142.763C211.574 142.763 210.313 143.924 209.642 144.769C208.971 145.614 206.808 147.962 206.038 149.136C205.073 150.607 204.527 151.032 204.22 153.68C203.914 156.327 204.151 157.405 204.776 160.044C205.493 163.075 207.133 166.514 207.48 167.966C208.129 170.682 211.574 176.349 211.574 176.349C211.574 176.349 212.984 180.157 211.987 182.559C210.991 184.962 210.405 185.381 210.405 185.381C210.405 185.381 211.872 189.795 209.642 193.228C207.413 196.66 203.731 199.075 201.762 199.743C200.874 200.045 199.4 200.823 198.662 201.985C197.766 203.396 197.676 205.2 197.459 205.2C197.211 205.2 196.008 203.417 195.332 201.649C194.926 200.589 198.557 194.22 197.674 192.898C197.585 192.763 196.862 192.898 196.862 192.898C196.862 192.898 201.762 183.007 201.762 178.291C201.762 173.041 201.449 172.298 199.758 165.052C198.067 157.806 196.862 159.332 196.862 152.12C196.862 144.909 208.712 139.056 210.039 139.527C210.398 139.654 210.739 139.835 211.034 140.084C211.637 140.594 211.574 142.763 211.574 142.763Z" fill="#0E2E68"/>
<path fill-rule="evenodd" clip-rule="evenodd" d="M206.1 139.568C206.1 139.568 206.504 138.901 206.821 138.553C207.137 138.206 207.731 137.778 207.731 137.778C207.731 137.778 208.917 137.464 210.275 138.418C211.634 139.372 211.485 140.942 211.485 140.942L210.689 143.1C210.689 143.1 210.7 140.939 209.21 140.253C207.72 139.568 206.1 139.568 206.1 139.568Z" fill="#4D4D4D"/>
<path fill-rule="evenodd" clip-rule="evenodd" d="M211.946 206.942C212.544 208.499 213.124 214.77 214.435 215.445C215.745 216.121 217.594 216.246 219.238 215.445C220.882 214.644 221.635 213.285 221.336 212.047C221.036 210.81 218.116 210.81 218.116 210.81C218.116 210.81 216.96 207.41 216.108 205.147C215.255 202.884 214.863 201.653 213.827 201.044C212.79 200.436 211.226 200.537 210.725 202.137C210.224 203.737 211.349 205.384 211.946 206.942Z" fill="#0E2E68"/>
<path fill-rule="evenodd" clip-rule="evenodd" d="M247.404 122.301C247.093 123.064 247.36 124.186 247.36 124.186L247.113 124.671C248.002 124.591 248.588 125.521 248.78 125.88L248.686 126.101L248.819 125.957C248.839 125.996 248.849 126.019 248.849 126.019L249.011 125.748L250.23 124.422C251.244 123.49 251.887 122.587 252.158 121.712C252.43 120.837 252.298 120.008 251.829 118.694L251.827 118.699C251.824 118.677 251.822 118.666 251.822 118.666C251.822 118.666 251.009 118.798 250.928 119.458C250.847 120.118 250.136 121.6 250.136 121.6C250.136 121.6 249.783 121.782 249.444 121.74C249.113 121.7 249.155 121.361 249.211 120.909C249.212 120.898 249.213 120.887 249.215 120.876C249.272 120.409 248.916 120.047 248.43 119.987C247.945 119.927 247.788 120.701 247.788 120.701C247.788 120.701 247.714 121.538 247.404 122.301Z" fill="#DBE3F3"/>
</svg>
