<svg width="68" height="64" viewBox="0 0 68 64" fill="none" xmlns="http://www.w3.org/2000/svg">
<path fill-rule="evenodd" clip-rule="evenodd" d="M26.6352 0.802005C13.8102 3.46104 4.71729 11.2861 1.20084 22.6894C-0.317917 27.6134 -0.00682864 33.9022 2.20949 43.095C3.24025 47.3704 4.21724 52.6899 4.38057 54.9161C4.8746 61.6509 7.23515 63.7434 14.3394 63.7434C16.8221 63.7434 18.6268 63.5175 18.9962 63.1604C19.7058 62.4744 19.8601 38.6572 19.1615 37.5923C18.0268 35.8617 9.91483 36.3771 7.51106 38.3327C6.67328 39.0143 5.88576 39.4734 5.76112 39.353C5.20931 38.8195 4.5223 33.6336 4.5223 29.999C4.5223 18.9051 10.8627 10.7288 22.5926 6.69581C26.5965 5.31941 27.3619 5.21932 33.9224 5.21932C40.4829 5.21932 41.2483 5.31941 45.2523 6.69581C57.0435 10.7497 63.2994 18.8318 63.3165 30.0325C63.322 33.6345 62.6365 38.819 62.0837 39.353C61.9591 39.4734 61.1715 39.0143 60.3338 38.3327C57.93 36.3771 49.8181 35.8617 48.6833 37.5923C47.9847 38.6572 48.139 62.4744 48.8486 63.1604C49.218 63.5175 51.0227 63.7434 53.5054 63.7434C60.6097 63.7434 62.9702 61.6509 63.4643 54.9161C63.6276 52.6899 64.5568 47.4797 65.5293 43.3379C67.908 33.2075 68.1627 30.3575 67.14 25.3159C64.7357 13.4632 55.8484 4.43857 43.4712 1.28153C39.2597 0.207328 30.6829 -0.0370525 26.6352 0.802005Z" fill="url(#paint0_linear_1001_5912)"/>
<defs>
<linearGradient id="paint0_linear_1001_5912" x1="33.9846" y1="0.298828" x2="33.9846" y2="63.7434" gradientUnits="userSpaceOnUse">
<stop stop-color="#0597CC"/>
<stop offset="1" stop-color="#1551C8"/>
</linearGradient>
</defs>
</svg>
