<svg width="73" height="77" viewBox="0 0 73 77" fill="none" xmlns="http://www.w3.org/2000/svg">
<path fill-rule="evenodd" clip-rule="evenodd" d="M29.9251 0.445713C16.8313 2.89834 6.55731 11.4444 2.37974 23.3586C0.628392 28.3529 0.215708 33.2198 0.370891 47.0555C0.519253 60.2633 0.566574 60.5534 2.92544 62.6636C4.96498 64.4887 6.65622 64.8282 13.7111 64.8282H20.3328V51.5498V38.2713H14.3642H8.39563V34.2714C8.39563 29.3907 9.12806 26.4527 11.4584 21.9858C14.4392 16.2716 20.1669 11.3324 26.4305 9.07507C36.7962 5.33913 48.3206 7.77705 56.1442 15.3609C61.5295 20.5816 63.8372 25.8059 64.1429 33.4706L64.3343 38.2713H58.3205H52.3072V51.5498V64.8282H54.4674C56.5082 64.8282 56.6123 64.8793 56.3424 65.7475C56.1851 66.2529 55.5929 67.1264 55.0259 67.6882C54.0594 68.6463 53.6851 68.7174 48.9947 68.8346L43.9939 68.9596L43.2887 67.7462C42.02 65.5632 40.6459 65.0325 36.2633 65.0325C31.8129 65.0325 30.5266 65.5943 29.1799 68.1258C27.7376 70.8358 28.6755 73.7767 31.52 75.4669C32.8369 76.2493 33.5003 76.2865 44.207 76.1782C55.1359 76.0675 55.5673 76.0324 57.4231 75.0996C61.0529 73.2753 63.367 70.3014 64.0031 66.6435C64.2704 65.1064 64.426 64.9512 66.1355 64.5128C68.2774 63.9641 70.3604 62.4123 71.4007 60.5918C72.035 59.4809 72.1493 57.6979 72.2691 47.0555C72.4243 33.2198 72.0116 28.3529 70.2602 23.3586C66.4016 12.3542 56.8369 3.83192 45.0597 0.904534C41.302 -0.0294515 33.693 -0.260292 29.9251 0.445713Z" fill="url(#paint0_linear_1001_5932)"/>
<defs>
<linearGradient id="paint0_linear_1001_5932" x1="36.32" y1="0.0332031" x2="36.32" y2="76.2228" gradientUnits="userSpaceOnUse">
<stop stop-color="#09A0D4"/>
<stop offset="1" stop-color="#1B26B5"/>
</linearGradient>
</defs>
</svg>
