<svg width="56" height="56" viewBox="0 0 56 56" fill="none" xmlns="http://www.w3.org/2000/svg">
<path fill-rule="evenodd" clip-rule="evenodd" d="M55.7606 27.8803C55.7606 43.2781 43.2781 55.7606 27.8803 55.7606C12.4824 55.7606 0 43.2781 0 27.8803C0 12.4824 12.4824 0 27.8803 0C43.2781 0 55.7606 12.4824 55.7606 27.8803ZM24.6456 12.345L21.0314 11.6957H21.0299C19.6881 11.4548 18.3073 11.7669 17.1913 12.5634C16.0752 13.3599 15.3153 14.5755 15.0787 15.9428L11.6392 35.8321C11.5713 36.2227 11.6584 36.6248 11.8814 36.9499C12.1044 37.2751 12.445 37.4966 12.8282 37.5659L18.6121 38.6041C19.3789 38.742 20.1681 38.5638 20.8059 38.1087C21.4438 37.6537 21.8782 36.9591 22.0135 36.1776L25.8361 14.0788C25.8697 13.8853 25.8656 13.687 25.8239 13.4951C25.7823 13.3032 25.7039 13.1216 25.5934 12.9605C25.4828 12.7995 25.3422 12.6623 25.1796 12.5567C25.017 12.451 24.8355 12.3791 24.6456 12.345ZM42.9295 18.67L31.3646 16.5906C30.9848 16.5224 30.5956 16.531 30.2191 16.6161C29.8426 16.7012 29.4862 16.8611 29.1704 17.0866C28.8545 17.312 28.5854 17.5987 28.3782 17.9302C28.1711 18.2617 28.0301 18.6316 27.9633 19.0186L24.1391 41.1159C24.1054 41.3096 24.1094 41.5083 24.151 41.7004C24.1927 41.8925 24.2711 42.0744 24.3819 42.2356C24.4926 42.3968 24.6334 42.5342 24.7963 42.6398C24.9592 42.7455 25.141 42.8173 25.3312 42.8513L31.8358 44.0181C32.88 44.2059 33.9503 44.1822 34.9855 43.9484C36.0207 43.7146 37.0006 43.2753 37.8692 42.6556C38.7378 42.0359 39.4781 41.2479 40.0479 40.3367C40.6177 39.4254 41.0057 38.4086 41.1899 37.3445L44.1215 20.4024C44.1549 20.2089 44.1505 20.0106 44.1087 19.8188C44.0668 19.627 43.9883 19.4455 43.8776 19.2846C43.7669 19.1237 43.6262 18.9867 43.4635 18.8812C43.3009 18.7758 43.1194 18.704 42.9295 18.67Z" fill="#110F24"/>
</svg>
