<svg width="30" height="30" viewBox="0 0 30 30" fill="none" xmlns="http://www.w3.org/2000/svg">
<path d="M7.5 23.75V12.5C7.5 10.5109 8.29018 8.60322 9.6967 7.1967C11.1032 5.79018 13.0109 5 15 5C16.9891 5 18.8968 5.79018 20.3033 7.1967C21.7098 8.60322 22.5 10.5109 22.5 12.5V23.75M7.5 23.75H22.5M7.5 23.75H5M22.5 23.75H25M13.75 27.5H16.25" stroke="#544C4C" stroke-width="2.66667" stroke-linecap="round" stroke-linejoin="round"/>
<path d="M15 5C15.6904 5 16.25 4.44036 16.25 3.75C16.25 3.05964 15.6904 2.5 15 2.5C14.3096 2.5 13.75 3.05964 13.75 3.75C13.75 4.44036 14.3096 5 15 5Z" stroke="#544C4C" stroke-width="2.66667"/>
</svg>
