<svg width="71" height="69" viewBox="0 0 71 69" fill="none" xmlns="http://www.w3.org/2000/svg">
<path d="M62.7137 13.239C62.7137 20.4201 56.5736 26.2416 48.9994 26.2416C41.4253 26.2416 35.2852 20.4201 35.2852 13.239C35.2852 6.05781 41.4253 0.236328 48.9994 0.236328C56.5736 0.236328 62.7137 6.05781 62.7137 13.239ZM39.3225 13.239C39.3225 18.3061 43.655 22.4138 48.9994 22.4138C54.3439 22.4138 58.6764 18.3061 58.6764 13.239C58.6764 8.17189 54.3439 4.0642 48.9994 4.0642C43.655 4.0642 39.3225 8.17189 39.3225 13.239Z" fill="url(#paint0_linear_1673_2764)"/>
<path d="M2.14258 58.7479C5.85022 44.8395 25.069 33.0459 37.5712 58.7479" stroke="url(#paint1_linear_1673_2764)" stroke-width="3"/>
<path d="M34.1424 32.7429C34.1424 39.9241 28.0023 45.7455 20.4282 45.7455C12.854 45.7455 6.71387 39.9241 6.71387 32.7429C6.71387 25.5617 12.854 19.7402 20.4282 19.7402C28.0023 19.7402 34.1424 25.5617 34.1424 32.7429ZM10.7512 32.7429C10.7512 37.81 15.0837 41.9177 20.4282 41.9177C25.7726 41.9177 30.1051 37.81 30.1051 32.7429C30.1051 27.6758 25.7726 23.5681 20.4282 23.5681C15.0837 23.5681 10.7512 27.6758 10.7512 32.7429Z" fill="url(#paint2_linear_1673_2764)"/>
<path d="M54.7148 63.5686L62.4746 68.2246C63.8957 69.0778 65.6346 67.8165 65.2606 66.2212L63.2038 57.4657L70.0661 51.5669C71.3189 50.4911 70.6457 48.4506 69.0003 48.3207L59.969 47.5602L56.4351 39.287C55.7993 37.7845 53.6303 37.7845 52.9946 39.287L49.4606 47.5417L40.4294 48.3022C38.7839 48.432 38.1108 50.4725 39.3636 51.5484L46.2258 57.4472L44.169 66.2026C43.7951 67.7979 45.534 69.0593 46.9551 68.206L54.7148 63.5686Z" fill="url(#paint3_linear_1673_2764)"/>
<path d="M30.7139 39.244C34.4215 25.3356 53.6403 13.542 66.1424 39.244" stroke="url(#paint4_linear_1673_2764)" stroke-width="3"/>
<defs>
<linearGradient id="paint0_linear_1673_2764" x1="48.9994" y1="0.236328" x2="48.9994" y2="26.2416" gradientUnits="userSpaceOnUse">
<stop stop-color="#03B1E5"/>
<stop offset="1" stop-color="#0074E5"/>
</linearGradient>
<linearGradient id="paint1_linear_1673_2764" x1="19.8569" y1="43.5781" x2="19.8569" y2="58.7479" gradientUnits="userSpaceOnUse">
<stop stop-color="#0994E7"/>
<stop offset="1" stop-color="#0E70D7"/>
</linearGradient>
<linearGradient id="paint2_linear_1673_2764" x1="20.4282" y1="19.7402" x2="20.4282" y2="45.7455" gradientUnits="userSpaceOnUse">
<stop stop-color="#03B1E5"/>
<stop offset="1" stop-color="#0074E5"/>
</linearGradient>
<linearGradient id="paint3_linear_1673_2764" x1="54.7148" y1="38.1602" x2="54.7148" y2="68.4997" gradientUnits="userSpaceOnUse">
<stop stop-color="#0991E6"/>
<stop offset="0.614583" stop-color="#183CBE"/>
<stop offset="0.895833" stop-color="#1938BD"/>
<stop offset="0.96875" stop-color="#1938BD"/>
<stop offset="0.9999" stop-color="#1A2FB9"/>
<stop offset="1" stop-color="#FAD010" stop-opacity="0"/>
<stop offset="1" stop-color="#0A36FF"/>
</linearGradient>
<linearGradient id="paint4_linear_1673_2764" x1="48.4282" y1="24.0742" x2="48.4282" y2="39.244" gradientUnits="userSpaceOnUse">
<stop stop-color="#0994E7"/>
<stop offset="1" stop-color="#0E70D7"/>
</linearGradient>
</defs>
</svg>
