<svg width="22" height="22" viewBox="0 0 22 22" fill="none" xmlns="http://www.w3.org/2000/svg">
<path fill-rule="evenodd" clip-rule="evenodd" d="M5.72909 3.20831C3.20825 3.20831 3.20825 3.39898 3.20825 5.72915V5.75206C3.20825 6.76681 3.20825 7.50015 3.45667 7.80998C3.69959 8.11065 4.421 8.24998 5.72909 8.24998C7.03717 8.24998 7.75859 8.10973 8.0015 7.80906C8.24992 7.50015 8.24992 6.76681 8.24992 5.75115C8.24992 3.39898 8.24992 3.20831 5.72909 3.20831ZM5.72909 9.62498C4.18359 9.62498 3.024 9.46273 2.38692 8.67165C1.83325 7.98506 1.83325 7.04823 1.83325 5.75206L2.52075 5.72915H1.83325C1.83325 3.09831 1.99917 1.83331 5.72909 1.83331C9.459 1.83331 9.62492 3.09831 9.62492 5.72915C9.62492 7.04731 9.62492 7.98506 9.07125 8.67165C8.43417 9.46273 7.27459 9.62498 5.72909 9.62498Z" fill="#7F56D8"/>
<path fill-rule="evenodd" clip-rule="evenodd" d="M15.8123 3.20831C13.2915 3.20831 13.2915 3.39898 13.2915 5.72915V5.75206C13.2915 6.76681 13.2915 7.50015 13.5399 7.80998C13.7828 8.11065 14.5043 8.24998 15.8123 8.24998C17.1204 8.24998 17.8418 8.10973 18.0848 7.80906C18.3332 7.50015 18.3332 6.76681 18.3332 5.75115C18.3332 3.39898 18.3332 3.20831 15.8123 3.20831ZM15.8123 9.62498C14.2668 9.62498 13.1073 9.46273 12.4702 8.67165C11.9165 7.98506 11.9165 7.04823 11.9165 5.75206L12.604 5.72915H11.9165C11.9165 3.09831 12.0824 1.83331 15.8123 1.83331C19.5423 1.83331 19.7082 3.09831 19.7082 5.72915C19.7082 7.04731 19.7082 7.98506 19.1545 8.67165C18.5174 9.46273 17.3578 9.62498 15.8123 9.62498Z" fill="#7F56D8"/>
<path fill-rule="evenodd" clip-rule="evenodd" d="M5.72909 13.2916C3.20825 13.2916 3.20825 13.4823 3.20825 15.8125V15.8354C3.20825 16.8501 3.20825 17.5835 3.45667 17.8933C3.69959 18.194 4.421 18.3333 5.72909 18.3333C7.03717 18.3333 7.75859 18.193 8.0015 17.8924C8.24992 17.5835 8.24992 16.8501 8.24992 15.8345C8.24992 13.4823 8.24992 13.2916 5.72909 13.2916ZM5.72909 19.7083C4.18359 19.7083 3.024 19.546 2.38692 18.755C1.83325 18.0684 1.83325 17.1315 1.83325 15.8354L2.52075 15.8125H1.83325C1.83325 13.1816 1.99917 11.9166 5.72909 11.9166C9.459 11.9166 9.62492 13.1816 9.62492 15.8125C9.62492 17.1306 9.62492 18.0684 9.07125 18.755C8.43417 19.546 7.27459 19.7083 5.72909 19.7083Z" fill="#7F56D8"/>
<path fill-rule="evenodd" clip-rule="evenodd" d="M15.8123 13.2916C13.2915 13.2916 13.2915 13.4823 13.2915 15.8125V15.8354C13.2915 16.8501 13.2915 17.5835 13.5399 17.8933C13.7828 18.194 14.5043 18.3333 15.8123 18.3333C17.1204 18.3333 17.8418 18.193 18.0848 17.8924C18.3332 17.5835 18.3332 16.8501 18.3332 15.8345C18.3332 13.4823 18.3332 13.2916 15.8123 13.2916ZM15.8123 19.7083C14.2668 19.7083 13.1073 19.546 12.4702 18.755C11.9165 18.0684 11.9165 17.1315 11.9165 15.8354L12.604 15.8125H11.9165C11.9165 13.1816 12.0824 11.9166 15.8123 11.9166C19.5423 11.9166 19.7082 13.1816 19.7082 15.8125C19.7082 17.1306 19.7082 18.0684 19.1545 18.755C18.5174 19.546 17.3578 19.7083 15.8123 19.7083Z" fill="#7F56D8"/>
</svg>
