<svg width="94" height="57" viewBox="0 0 94 57" fill="none" xmlns="http://www.w3.org/2000/svg">
<path fill-rule="evenodd" clip-rule="evenodd" d="M23.7339 10.919C22.3367 11.3923 21.6 12.3487 21.3768 13.9789C21.2983 14.552 21.232 15.1002 21.2295 15.197C21.226 15.3316 20.5479 15.3731 18.3475 15.3731C15.6614 15.3731 15.4439 15.3925 15.0785 15.6651C14.5254 16.0774 14.5254 16.9225 15.0785 17.3348C15.4657 17.6238 15.5781 17.6269 25.4865 17.6269H35.5031L35.8677 17.281C36.3503 16.8237 36.3503 16.1763 35.8677 15.7189L35.5031 15.3731H29.5341H23.5652L23.6581 14.9329C23.7092 14.6907 23.7509 14.3076 23.7509 14.0814C23.7509 13.8323 23.8949 13.5334 24.1157 13.3242L24.4804 12.9784H43.9418C65.6815 12.9784 63.9784 12.8953 63.8063 13.9484C63.7605 14.2284 63.1188 19.9722 62.3803 26.7125C61.6416 33.4527 61.0048 39.11 60.965 39.2844L60.8927 39.6013H49.7704H38.648L38.5509 39.0262C38.4976 38.71 38.2827 38.131 38.0737 37.7398C36.913 35.5685 34.398 34.3808 31.8188 34.786C29.595 35.1353 27.5155 36.6368 26.5584 38.584L26.0584 39.6013H23.6469C21.4997 39.6013 21.2209 39.5743 21.1032 39.3548C21.02 39.1999 21.1251 37.7741 21.386 35.5163C21.6142 33.5407 21.805 31.8135 21.8101 31.6778C21.8185 31.4511 22.0728 31.4313 24.9881 31.4313C28.1082 31.4313 28.1618 31.4263 28.48 31.1054C29.0993 30.4804 28.7667 29.4536 27.878 29.247C27.6921 29.2037 22.9705 29.1863 17.3858 29.2081L7.23162 29.248L6.85941 29.6583C6.42017 30.1424 6.4698 30.7853 6.97724 31.1848C7.26401 31.4106 7.79418 31.4313 13.2831 31.4313C16.579 31.4313 19.3054 31.4789 19.3417 31.537C19.3779 31.595 19.2198 33.3302 18.9904 35.3928C18.7109 37.9037 18.6137 39.3141 18.6964 39.6611C18.8867 40.461 19.4429 41.1208 20.2511 41.5054C20.9459 41.836 21.1218 41.8551 23.464 41.8551H25.9417L26.04 42.437C26.2095 43.4425 26.8267 44.4621 27.7635 45.2841C28.7654 46.1635 29.8479 46.616 31.2457 46.7398C33.9271 46.9771 36.826 45.325 38.0313 42.8724L38.5313 41.8551H52.3729H66.2145L66.3155 42.3834C66.8671 45.2668 70.0814 47.2431 73.2565 46.6511C75.564 46.2206 77.8189 44.4201 78.584 42.3969L78.7785 41.8822L80.6483 41.8293C82.6759 41.7719 83.0785 41.6545 83.8922 40.8832C84.7138 40.1042 84.8025 39.7353 85.36 34.7792C85.9416 29.6076 85.9279 29.0357 85.1872 27.5665C84.6481 26.4971 77.7039 19.2521 76.7232 18.736C75.3177 17.9962 74.6059 17.9086 70.0055 17.9086H65.8018L65.8033 17.5916C65.8041 17.4174 65.9057 16.419 66.0293 15.3731C66.1528 14.3272 66.2126 13.2813 66.1619 13.0488C65.9753 12.1917 65.3977 11.4737 64.5861 11.0904L63.8118 10.7246L44.0415 10.7308C28.273 10.7357 24.1622 10.7738 23.7339 10.919ZM10.1065 20.3475C9.48722 20.9725 9.81976 21.9994 10.7085 22.2059C10.8944 22.2491 15.7497 22.2666 21.4982 22.2446L31.9497 22.2049L32.2338 21.8723C32.628 21.4107 32.6007 20.7079 32.1739 20.3277L31.8299 20.0215H21.1298H10.4297L10.1065 20.3475ZM65.4512 20.7536C65.2917 21.831 63.4244 38.861 63.4244 39.2372V39.6013H64.9122H66.3999L66.7747 38.7981C68.1445 35.8616 71.5588 34.1404 74.5652 34.8706C76.8064 35.4149 78.3082 36.8535 78.8788 39.0027L79.0378 39.6013H80.4437C81.6454 39.6013 81.8922 39.5609 82.143 39.3231C82.525 38.961 82.5029 39.089 83.0408 34.1415C83.4784 30.1168 83.4913 29.8369 83.2733 29.1261C83.0689 28.4593 82.6504 27.957 79.6082 24.7256C76.785 21.7269 76.0265 21.0028 75.3452 20.6554L74.5165 20.2328L70.0286 20.1901L65.5408 20.1473L65.4512 20.7536ZM67.8724 22.7793C67.6056 23.0843 66.9763 28.5723 67.1671 28.931C67.2889 29.1601 67.7552 29.1775 73.7676 29.1775C79.3026 29.1775 80.2299 29.1484 80.1888 28.976C80.0937 28.5768 74.8215 23.1327 74.2845 22.8792C73.8404 22.6696 73.2777 22.6203 70.9163 22.5841C68.3989 22.5456 68.0579 22.5674 67.8724 22.7793ZM13.1051 24.6273C12.2719 24.7798 11.9529 25.9439 12.5812 26.5395L12.9121 26.8533L24.6838 26.8928C31.1581 26.9146 36.6765 26.8952 36.9466 26.8498C37.5945 26.7408 38.0156 26.3225 38.0156 25.7876C38.0156 25.1852 37.7992 24.865 37.2751 24.6919C36.8436 24.5492 13.8668 24.488 13.1051 24.6273ZM31.7005 37.122C30.7415 37.4095 30.2378 37.7087 29.588 38.3771C28.8294 39.1572 28.5385 39.6813 28.3551 40.5976C28.0733 42.007 28.7116 43.375 29.9813 44.0826C30.5611 44.4057 30.8234 44.4598 31.7748 44.4525C32.6748 44.4456 33.0322 44.3733 33.6322 44.0769C35.2525 43.2767 36.2696 41.7961 36.2696 40.2373C36.2696 37.9585 34.0219 36.426 31.7005 37.122ZM72.0353 37.1091C70.1555 37.6112 68.8138 39.1458 68.6592 40.9702C68.56 42.1432 68.8833 42.9424 69.7493 43.6651C71.2909 44.9514 73.5979 44.7549 75.2412 43.197C76.1969 42.2911 76.5655 41.4666 76.5706 40.2242C76.574 39.3565 76.5162 39.1376 76.125 38.5375C75.2921 37.2608 73.6348 36.6818 72.0353 37.1091Z" fill="url(#paint0_linear_1001_5897)"/>
<defs>
<linearGradient id="paint0_linear_1001_5897" x1="46.1662" y1="10.7246" x2="46.1662" y2="46.7624" gradientUnits="userSpaceOnUse">
<stop stop-color="#02B9EE"/>
<stop offset="1" stop-color="#1F1FB9"/>
</linearGradient>
</defs>
</svg>
