<svg width="24" height="24" viewBox="0 0 24 24" fill="none" xmlns="http://www.w3.org/2000/svg">
<path fill-rule="evenodd" clip-rule="evenodd" d="M17.4165 12.8166C17.4165 12.4171 17.7404 12.0933 18.1399 12.0933H22.4802C22.8797 12.0933 23.2035 12.4171 23.2035 12.8166C23.2035 13.2162 22.8797 13.54 22.4802 13.54H18.1399C17.7404 13.54 17.4165 13.2162 17.4165 12.8166Z" fill="white"/>
<path fill-rule="evenodd" clip-rule="evenodd" d="M20.3103 9.92285C20.7098 9.92285 21.0337 10.2467 21.0337 10.6462V14.9865C21.0337 15.386 20.7098 15.7099 20.3103 15.7099C19.9108 15.7099 19.5869 15.386 19.5869 14.9865V10.6462C19.5869 10.2467 19.9108 9.92285 20.3103 9.92285Z" fill="white"/>
<path fill-rule="evenodd" clip-rule="evenodd" d="M9.82109 4.85936C7.22427 4.85936 5.11912 6.9645 5.11912 9.56132C5.11912 12.1581 7.22427 14.2633 9.82109 14.2633C12.4179 14.2633 14.5231 12.1581 14.5231 9.56132C14.5231 6.9645 12.4179 4.85936 9.82109 4.85936ZM3.67236 9.56132C3.67236 6.16548 6.42524 3.4126 9.82109 3.4126C13.2169 3.4126 15.9698 6.16548 15.9698 9.56132C15.9698 12.9572 13.2169 15.7101 9.82109 15.7101C6.42524 15.7101 3.67236 12.9572 3.67236 9.56132Z" fill="white"/>
<path fill-rule="evenodd" clip-rule="evenodd" d="M9.821 15.709C8.44773 15.709 7.09113 16.0097 5.84654 16.5901C4.60196 17.1705 3.49959 18.0165 2.61691 19.0685C2.36012 19.3745 1.90385 19.4145 1.5978 19.1577C1.29174 18.9009 1.2518 18.4446 1.50859 18.1386C2.52706 16.9247 3.79903 15.9486 5.23509 15.2789C6.67115 14.6092 8.23646 14.2622 9.821 14.2622C11.4055 14.2622 12.9708 14.6092 14.4069 15.2789C15.843 15.9486 17.1149 16.9247 18.1334 18.1386C18.3902 18.4446 18.3503 18.9009 18.0442 19.1577C17.7381 19.4145 17.2819 19.3745 17.0251 19.0685C16.1424 18.0165 15.04 17.1705 13.7955 16.5901C12.5509 16.0097 11.1943 15.709 9.821 15.709Z" fill="white"/>
</svg>
