<svg width="14" height="14" viewBox="0 0 14 14" fill="none" xmlns="http://www.w3.org/2000/svg">
<path d="M8.50344 9.58191L10.374 7.71136L3.39011 7.71136L3.39011 6.26691L10.374 6.26691L8.50344 4.39636L9.529 3.37802L13.1401 6.98914L9.529 10.6002L8.50344 9.58191ZM12.0568 0.489136C12.4399 0.489136 12.8073 0.641318 13.0782 0.912204C13.349 1.18309 13.5012 1.55049 13.5012 1.93358L13.5012 5.30636L12.0568 3.86191L12.0568 1.93358L1.94567 1.93358L1.94567 12.0447L12.0568 12.0447L12.0568 10.1164L13.5012 8.67191L13.5012 12.0447C13.5012 12.4278 13.349 12.7952 13.0782 13.0661C12.8073 13.337 12.4399 13.4891 12.0568 13.4891L1.94567 13.4891C1.144 13.4891 0.501221 12.8391 0.501221 12.0447L0.501221 1.93358C0.501221 1.13191 1.144 0.489136 1.94567 0.489136L12.0568 0.489136Z" fill="#7D7D7D"/>
</svg>
